<?xml version="1.0"?>
<svg width="400" height="400" xmlns="http://www.w3.org/2000/svg" xmlns:svg="http://www.w3.org/2000/svg">
 <!-- Created with SVG-edit - https://github.com/SVG-Edit/svgedit-->
 <title>InThePocket-Logo</title>
 <g class="layer">
  <title>Layer 1</title>
  <rect fill="#000000" height="133" id="svg_25" stroke="#000000" stroke-dasharray="null" stroke-linecap="null" stroke-linejoin="null" transform="rotate(-25.2532, 171.544, 71.1665)" width="9.48" x="166.8" y="4.67"/>
  <rect fill="#0048ff" height="197" id="svg_1" stroke="#0048ff" width="200" x="102" y="131"/>
  <path d="m300.97,328.34l-99,63l-99,-63z" fill="#0048ff" id="svg_2" stroke="#0048ff" stroke-dasharray="null" stroke-linecap="null" stroke-linejoin="null"/>
  <rect fill="#0048ff" height="168" id="svg_4" stroke="#faff00" stroke-dasharray="null" stroke-linecap="null" stroke-linejoin="null" width="169" x="118.3" y="150.83"/>
  <path d="m286.14,319.4l-83.55,52.84l-83.55,-52.84z" fill="#0048ff" id="svg_6" stroke="#faff00" stroke-dasharray="null" stroke-linecap="null" stroke-linejoin="null"/>
  <path d="m127.7,320.07c1.65,0 2.57,0 3.29,0c1.04,0 1.89,0 2.82,0c0.89,0 1.72,-0.24 2.6,0c0.82,0.22 1.6,0.92 2.29,0.98c1.11,0.09 1.97,0.02 2.8,0.02c0.91,0 1.54,0.62 2.4,0.91c0.85,0.29 1.77,0.09 2.68,0.09c0.83,0 1.69,0 2.62,0c0.86,0 1.8,0 2.72,0c0.86,0 1.78,0 2.66,0c0.84,0 1.73,0 2.6,0c0.96,0 1.67,0.01 2.69,0c0.83,-0.01 1.59,-0.57 2.4,-0.91c0.72,-0.31 1.67,-0.09 2.63,-0.09c0.9,0 1.81,0.09 2.56,-0.06c0.93,-0.18 1.63,-0.67 2.64,-0.86c0.76,-0.14 1.71,-0.09 2.63,-0.09c0.78,0 1.67,0 2.61,0c0.85,0 1.79,0 2.72,0c0.84,0 1.81,0 2.62,0c0.96,0 1.73,0 2.62,0c0.9,0 1.8,0 2.7,0c1.02,0 1.84,-0.05 2.74,0c0.76,0.04 1.44,0.78 2.31,1c0.91,0.23 1.84,-0.05 2.7,0c0.75,0.04 1.43,0.78 2.3,1c0.9,0.23 1.71,0.3 2.36,0.72c0.7,0.45 1.72,0.28 2.59,0.28c0.86,0 1.7,0 2.67,0c0.82,0 1.66,0 2.68,0c0.75,0 1.74,0 2.54,0c1,0 1.78,0 2.78,0c0.82,0 1.66,0 2.67,0c0.69,0 1.71,0 2.65,0c0.9,0 1.8,0 2.7,0c0.8,0 1.7,0 2.6,0c0.9,0 1.8,0 2.7,0c0.9,0 1.8,0 2.7,0c0.8,0 1.7,0 2.6,0c0.88,0 1.85,0 2.72,0c0.85,0 1.79,0 2.68,0c0.88,0 1.71,0 2.52,0c0.96,0 1.89,-0.13 2.78,0c0.93,0.14 1.47,0.85 2.4,0.99c0.89,0.14 1.8,0 2.69,0c0.9,0 1.88,-0.3 2.66,0.06c0.76,0.34 1.38,0.94 2.25,0.94c0.9,0 1.81,0 2.7,0c0.89,0 1.72,0 2.65,0c0.85,0 1.79,0 2.65,0c0.9,0 1.72,-0.34 2.41,-0.72c0.8,-0.43 1.84,-0.13 2.29,-0.64c0.46,-0.53 1.22,-0.48 2,-0.81c0.78,-0.33 1.5,-0.82 2.4,-0.83c0.9,-0.01 1.34,-0.67 1.95,-1c0.87,-0.46 1.67,0 2.76,0l0.86,0l0.86,0l0.88,0" fill="none" fill-opacity="null" id="svg_8" stroke="#0048ff" stroke-dasharray="null" stroke-linecap="null" stroke-linejoin="null"/>
  <rect fill="#0048ff" height="11" id="svg_9" stroke="#0048ff" stroke-dasharray="null" stroke-linecap="null" stroke-linejoin="null" width="179" x="112.7" y="309.07"/>
  <rect fill="#0048ff" height="11" id="svg_10" stroke="#0048ff" stroke-dasharray="null" stroke-linecap="null" stroke-linejoin="null" width="179" x="114.5" y="278.5"/>
  <rect fill="#0048ff" height="11" id="svg_11" stroke="#0048ff" stroke-dasharray="null" stroke-linecap="null" stroke-linejoin="null" width="179" x="113.5" y="249.5"/>
  <rect fill="#0048ff" height="11" id="svg_12" stroke="#0048ff" stroke-dasharray="null" stroke-linecap="null" stroke-linejoin="null" width="179" x="114.5" y="220.5"/>
  <rect fill="#0048ff" height="11" id="svg_13" stroke="#0048ff" stroke-dasharray="null" stroke-linecap="null" stroke-linejoin="null" width="179" x="113.5" y="192.5"/>
  <rect fill="#0048ff" height="11" id="svg_14" stroke="#0048ff" stroke-dasharray="null" stroke-linecap="null" stroke-linejoin="null" width="179" x="114.5" y="166.5"/>
  <rect fill="#0048ff" fill-opacity="null" height="197" id="svg_16" stroke="#0048ff" stroke-dasharray="null" stroke-linecap="null" stroke-linejoin="null" stroke-opacity="null" width="7" x="119.4" y="137.08"/>
  <rect fill="#0048ff" fill-opacity="null" height="197" id="svg_17" stroke="#0048ff" stroke-dasharray="null" stroke-linecap="null" stroke-linejoin="null" stroke-opacity="null" width="7" x="279.5" y="133.5"/>
  <rect fill="#0048ff" fill-opacity="null" height="197" id="svg_18" stroke="#0048ff" stroke-dasharray="null" stroke-linecap="null" stroke-linejoin="null" stroke-opacity="null" width="7" x="257.5" y="143.5"/>
  <rect fill="#0048ff" fill-opacity="null" height="197" id="svg_19" stroke="#0048ff" stroke-dasharray="null" stroke-linecap="null" stroke-linejoin="null" stroke-opacity="null" width="7" x="144.5" y="146.5"/>
  <rect fill="#0048ff" fill-opacity="null" height="213" id="svg_20" stroke="#0048ff" stroke-dasharray="null" stroke-linecap="null" stroke-linejoin="null" stroke-opacity="null" width="7" x="164.5" y="146.5"/>
  <rect fill="#0048ff" fill-opacity="null" height="207" id="svg_21" stroke="#0048ff" stroke-dasharray="null" stroke-linecap="null" stroke-linejoin="null" stroke-opacity="null" width="7" x="236.5" y="145.5"/>
  <rect fill="#0048ff" fill-opacity="null" height="223" id="svg_22" stroke="#0048ff" stroke-dasharray="null" stroke-linecap="null" stroke-linejoin="null" stroke-opacity="null" width="7" x="215.5" y="146.5"/>
  <rect fill="#0048ff" fill-opacity="null" height="227" id="svg_23" stroke="#0048ff" stroke-dasharray="null" stroke-linecap="null" stroke-linejoin="null" stroke-opacity="null" width="7" x="183.5" y="143.5"/>
  <rect fill="#0048ff" fill-opacity="null" height="197" id="svg_24" stroke="#0048ff" stroke-dasharray="null" stroke-linecap="null" stroke-linejoin="null" stroke-opacity="null" width="7" x="199.5" y="185.5"/>
  <path d="m146.46,84.67l7.87,-42l26.25,0l7.87,42z" fill="#7f7f7f" id="svg_26" stroke="#7f7f7f" stroke-dasharray="null" stroke-linecap="null" stroke-linejoin="null" transform="rotate(154.095, 167.46, 63.6721)"/>
 </g>
</svg>